<svg width="291" height="40" viewBox="0 0 291 40" fill="none" xmlns="http://www.w3.org/2000/svg">
<path d="M9.13207 23.53V38.09C9.13207 38.6967 8.82874 39 8.22207 39H1.85207C1.2454 39 0.942071 38.6967 0.942071 38.09V0.989997C0.942071 0.38333 1.2454 0.0799962 1.85207 0.0799962H19.9821C23.2487 0.0799962 24.8821 1.64333 24.8821 4.77V6.52C24.8821 7.31333 24.5087 7.71 23.7621 7.71H9.13207V15.97H18.3021C21.5687 15.97 23.2021 17.5333 23.2021 20.66V22.34C23.2021 23.1333 22.8287 23.53 22.0821 23.53H9.13207ZM34.693 39.56C32.2663 39.56 30.353 38.7667 28.953 37.18C27.553 35.5467 26.853 33.0967 26.853 29.83V0.989997C26.853 0.38333 27.1563 0.0799962 27.763 0.0799962H28.113C30.3063 0.0799962 31.963 0.59333 33.083 1.62C34.2497 2.64666 34.833 4.42 34.833 6.94V28.92C34.833 31.44 35.7197 32.7 37.493 32.7C38.1463 32.7 38.6597 32.6067 39.033 32.42C39.453 32.2333 39.8963 31.9767 40.363 31.65C40.4563 31.5567 40.573 31.4867 40.713 31.44C40.853 31.3467 41.0163 31.3 41.203 31.3C41.483 31.3 41.6697 31.4167 41.763 31.65C41.903 31.8833 41.973 32.1167 41.973 32.35C41.973 33.4233 41.7397 34.52 41.273 35.64C40.853 36.76 40.1063 37.6933 39.033 38.44C38.0063 39.1867 36.5597 39.56 34.693 39.56ZM61.4297 35.99C60.5431 37.11 59.4231 37.9967 58.0697 38.65C56.7164 39.3033 55.2231 39.63 53.5897 39.63C50.9297 39.63 48.7131 39 46.9397 37.74C45.1664 36.4333 43.8131 34.7067 42.8797 32.56C41.9931 30.4133 41.5497 28.0333 41.5497 25.42C41.5497 22.8067 42.0397 20.45 43.0197 18.35C43.9997 16.2033 45.3997 14.5233 47.2197 13.31C49.0397 12.05 51.2097 11.42 53.7297 11.42C55.8764 11.42 57.6264 11.7933 58.9797 12.54C60.3797 13.2867 61.4764 14.1033 62.2697 14.99C62.7831 14.01 63.5297 13.31 64.5097 12.89C65.5364 12.47 66.7731 12.26 68.2197 12.26H68.5697C69.1764 12.26 69.4797 12.5633 69.4797 13.17V38.09C69.4797 38.6967 69.1764 39 68.5697 39H62.3397C61.7331 39 61.4297 38.6967 61.4297 38.09V35.99ZM55.7597 32.14C56.3664 32.14 57.1131 32 57.9997 31.72C58.8864 31.3933 59.6797 30.7633 60.3797 29.83C61.0797 28.85 61.4297 27.4033 61.4297 25.49C61.4297 23.5767 61.0797 22.1767 60.3797 21.29C59.7264 20.4033 58.9564 19.8433 58.0697 19.61C57.1831 19.33 56.4131 19.19 55.7597 19.19C55.1531 19.19 54.3831 19.33 53.4497 19.61C52.5164 19.8433 51.6764 20.4033 50.9297 21.29C50.1831 22.1767 49.8097 23.5767 49.8097 25.49C49.8097 27.4033 50.1597 28.85 50.8597 29.83C51.6064 30.7633 52.4464 31.3933 53.3797 31.72C54.3597 32 55.1531 32.14 55.7597 32.14ZM84.1721 31.72L89.6321 13.17C89.7721 12.5633 90.1454 12.26 90.7521 12.26H97.1921C97.7987 12.26 98.0087 12.5633 97.8221 13.17L89.2121 38.09C89.0254 38.6967 88.6287 39 88.0221 39H80.1821C79.5287 39 79.1087 38.6967 78.9221 38.09L70.4521 13.17C70.2187 12.5633 70.3821 12.26 70.9421 12.26H72.2721C73.9054 12.26 75.2121 12.4467 76.1921 12.82C77.2187 13.1933 78.0587 13.87 78.7121 14.85C79.3654 15.83 79.9487 17.2533 80.4621 19.12L84.1721 31.72ZM111.848 39.7C107.601 39.7 104.194 38.4167 101.628 35.85C99.1078 33.2367 97.8478 29.8067 97.8478 25.56C97.8478 21.3133 99.0844 17.9067 101.558 15.34C104.078 12.7733 107.461 11.49 111.708 11.49C116.001 11.49 119.408 12.7733 121.928 15.34C124.448 17.9067 125.708 21.3133 125.708 25.56C125.708 29.8067 124.471 33.2367 121.998 35.85C119.524 38.4167 116.141 39.7 111.848 39.7ZM111.708 32.14C113.154 32.14 114.461 31.6967 115.628 30.81C116.794 29.8767 117.378 28.1733 117.378 25.7C117.378 23.2733 116.794 21.57 115.628 20.59C114.508 19.61 113.224 19.12 111.778 19.12C110.331 19.12 109.024 19.61 107.858 20.59C106.691 21.57 106.108 23.2733 106.108 25.7C106.108 28.1733 106.668 29.8767 107.788 30.81C108.954 31.6967 110.261 32.14 111.708 32.14ZM141.183 39.7C138.103 39.7 135.607 39.1167 133.693 37.95C131.827 36.7367 130.473 35.0567 129.633 32.91C128.793 30.7633 128.373 28.3133 128.373 25.56V13.17C128.373 12.5633 128.677 12.26 129.283 12.26H129.633C131.827 12.26 133.483 12.7733 134.603 13.8C135.77 14.8267 136.353 16.6 136.353 19.12V26.68C136.353 28.8267 136.843 30.2967 137.823 31.09C138.803 31.8833 139.923 32.28 141.183 32.28C142.443 32.28 143.563 31.8833 144.543 31.09C145.57 30.2967 146.083 28.85 146.083 26.75V13.17C146.083 12.5633 146.387 12.26 146.993 12.26H147.343C149.583 12.26 151.263 12.7733 152.383 13.8C153.55 14.8267 154.133 16.6 154.133 19.12V26.05C154.133 30.2033 153.13 33.5167 151.123 35.99C149.117 38.4633 145.803 39.7 141.183 39.7ZM165.282 16.11C166.122 14.6167 167.032 13.6133 168.012 13.1C169.038 12.54 170.555 12.26 172.562 12.26H173.402C174.008 12.26 174.312 12.5633 174.312 13.17V18.84C174.312 19.4467 174.008 19.75 173.402 19.75H171.372C169.645 19.75 168.362 20.0533 167.522 20.66C166.728 21.22 166.215 22.06 165.982 23.18C165.748 24.2533 165.632 25.56 165.632 27.1V38.09C165.632 38.6967 165.328 39 164.722 39H158.562C157.955 39 157.652 38.6967 157.652 38.09V13.17C157.652 12.5633 157.955 12.26 158.562 12.26H158.912C160.638 12.26 162.015 12.5633 163.042 13.17C164.115 13.7767 164.862 14.7567 165.282 16.11ZM178.011 39C177.405 39 177.101 38.6967 177.101 38.09V0.989997C177.101 0.38333 177.405 0.0799962 178.011 0.0799962H189.701C192.175 0.0799962 194.601 0.38333 196.981 0.989997C199.408 1.55 201.601 2.55333 203.561 4C205.521 5.4 207.085 7.31333 208.251 9.74C209.418 12.1667 210.001 15.2467 210.001 18.98C210.001 26.0267 208.135 31.1367 204.401 34.31C200.715 37.4367 195.628 39 189.141 39H178.011ZM185.291 31.44H189.981C193.575 31.44 196.375 30.4133 198.381 28.36C200.435 26.3067 201.461 23.2733 201.461 19.26C201.461 15.06 200.435 12.0967 198.381 10.37C196.328 8.59667 193.435 7.71 189.701 7.71H185.291V31.44ZM232.511 35.99C231.625 37.11 230.505 37.9967 229.151 38.65C227.798 39.3033 226.305 39.63 224.671 39.63C222.011 39.63 219.795 39 218.021 37.74C216.248 36.4333 214.895 34.7067 213.961 32.56C213.075 30.4133 212.631 28.0333 212.631 25.42C212.631 22.8067 213.121 20.45 214.101 18.35C215.081 16.2033 216.481 14.5233 218.301 13.31C220.121 12.05 222.291 11.42 224.811 11.42C226.958 11.42 228.708 11.7933 230.061 12.54C231.461 13.2867 232.558 14.1033 233.351 14.99C233.865 14.01 234.611 13.31 235.591 12.89C236.618 12.47 237.855 12.26 239.301 12.26H239.651C240.258 12.26 240.561 12.5633 240.561 13.17V38.09C240.561 38.6967 240.258 39 239.651 39H233.421C232.815 39 232.511 38.6967 232.511 38.09V35.99ZM226.841 32.14C227.448 32.14 228.195 32 229.081 31.72C229.968 31.3933 230.761 30.7633 231.461 29.83C232.161 28.85 232.511 27.4033 232.511 25.49C232.511 23.5767 232.161 22.1767 231.461 21.29C230.808 20.4033 230.038 19.8433 229.151 19.61C228.265 19.33 227.495 19.19 226.841 19.19C226.235 19.19 225.465 19.33 224.531 19.61C223.598 19.8433 222.758 20.4033 222.011 21.29C221.265 22.1767 220.891 23.5767 220.891 25.49C220.891 27.4033 221.241 28.85 221.941 29.83C222.688 30.7633 223.528 31.3933 224.461 31.72C225.441 32 226.235 32.14 226.841 32.14ZM243.836 30.6C245.096 31.4867 246.332 32.1633 247.546 32.63C248.759 33.0967 250.159 33.33 251.746 33.33C254.079 33.33 255.246 32.6067 255.246 31.16C255.246 30.46 254.826 29.9233 253.986 29.55C253.192 29.13 252.189 28.7333 250.976 28.36C249.809 27.9867 248.619 27.52 247.406 26.96C246.239 26.3533 245.236 25.5367 244.396 24.51C243.602 23.4367 243.206 22.0133 243.206 20.24C243.206 18.0467 243.719 16.32 244.746 15.06C245.819 13.8 247.196 12.89 248.876 12.33C250.556 11.77 252.282 11.49 254.056 11.49C256.062 11.49 257.789 11.8167 259.236 12.47C260.589 13.0767 261.499 13.8233 261.966 14.71C262.479 15.55 262.479 16.7867 261.966 18.42L261.756 19.12C261.616 19.4933 261.406 19.68 261.126 19.68C260.939 19.68 260.776 19.6567 260.636 19.61C260.496 19.5167 260.332 19.4467 260.146 19.4C258.979 18.84 257.882 18.4433 256.856 18.21C255.876 17.9767 254.872 17.86 253.846 17.86C253.192 17.86 252.586 18 252.026 18.28C251.512 18.56 251.256 19.05 251.256 19.75C251.256 20.45 251.652 21.01 252.446 21.43C253.286 21.85 254.289 22.27 255.456 22.69C256.669 23.0633 257.859 23.5533 259.026 24.16C260.239 24.7667 261.242 25.56 262.036 26.54C262.876 27.52 263.296 28.8267 263.296 30.46C263.296 33.2133 262.339 35.4533 260.426 37.18C258.512 38.86 255.969 39.7 252.796 39.7C249.809 39.7 247.312 38.9533 245.306 37.46C243.346 35.92 242.366 34.0533 242.366 31.86C242.366 30.88 242.669 30.39 243.276 30.39C243.369 30.39 243.462 30.4133 243.556 30.46C243.696 30.5067 243.789 30.5533 243.836 30.6ZM273.169 14.64C274.803 12.4933 277.136 11.42 280.169 11.42C283.296 11.42 285.863 12.4233 287.869 14.43C289.923 16.39 290.949 19.4467 290.949 23.6V38.09C290.949 38.6967 290.646 39 290.039 39H283.809C283.203 39 282.899 38.6967 282.899 38.09V24.3C282.899 22.2467 282.386 20.8233 281.359 20.03C280.379 19.2367 279.259 18.84 277.999 18.84C276.739 18.84 275.619 19.2367 274.639 20.03C273.659 20.8233 273.169 22.27 273.169 24.37V38.09C273.169 38.6967 272.866 39 272.259 39H266.099C265.493 39 265.189 38.6967 265.189 38.09V0.989997C265.189 0.38333 265.493 0.0799962 266.099 0.0799962H266.449C268.643 0.0799962 270.299 0.59333 271.419 1.62C272.586 2.64666 273.169 4.42 273.169 6.94V14.64Z" fill="#FFFFFF"/>
</svg>
